# MagicaVoxel @ Ephtracy

# group
o 

# material
mtllib GATE.mtl
usemtl palette

# normals
vn -1 0 0
vn 1 0 0
vn 0 0 1
vn 0 0 -1
vn 0 -1 0
vn 0 1 0

# texcoords
vt 0.162109 0.5
vt 0.841797 0.5
vt 0.919922 0.5
vt 0.982422 0.5
vt 0.986328 0.5
vt 0.994141 0.5

# verts
v -3.1 0 1.1
v -3.1 0 -0.5
v -3.1 5.8 1.1
v -3.1 5.8 -0.5
v -3 5.8 1.1
v -3 5.8 -0.5
v -3 5.9 1.1
v -3 5.9 -0.5
v -2.9 5.9 1.1
v -2.9 5.9 -0.5
v -2.9 6 1.1
v -2.9 6 -0.5
v -2.8 6 1.1
v -2.8 6 -0.5
v -2.8 6.1 1.1
v -2.8 6.1 -0.5
v -2.7 6.1 1.1
v -2.7 6.1 -0.5
v -2.7 6.2 1.1
v -2.7 6.2 -0.5
v -2.6 6.2 1.1
v -2.6 6.2 -0.5
v -2.6 6.3 1.1
v -2.6 6.3 -0.5
v -2.5 6.3 1.1
v -2.5 6.3 -0.5
v -2.5 6.4 1.1
v -2.5 6.4 -0.5
v -2.4 6.4 1.1
v -2.4 6.4 -0.5
v -2.4 6.5 1.1
v -2.4 6.5 -0.5
v -2.3 6.5 1.1
v -2.3 6.5 -0.5
v -2.3 6.6 1.1
v -2.3 6.6 -0.5
v -1.9 6.6 0.5
v -1.9 6.6 0.2
v -1.9 6.8 0.5
v -1.9 6.8 0.2
v -1.8 6.8 0.4
v -1.8 6.8 0.3
v -1.8 7.3 0.4
v -1.8 7.3 0.3
v 1.5 6.6 0.5
v 1.5 6.6 0.2
v 1.5 6.8 0.5
v 1.5 6.8 0.2
v 1.6 6.8 0.4
v 1.6 6.8 0.3
v 1.6 7.2 0.4
v 1.6 7.2 0.3
v 2.6 5.7 1.1
v 2.6 5.7 -0.5
v 2.6 5.8 1.1
v 2.6 5.8 -0.5
v 2.7 0 1.1
v 2.7 0 -0.5
v 2.7 5.7 1.1
v 2.7 5.7 -0.5
v -2.7 0 1.1
v -2.7 0 -0.5
v -2.7 5.7 1.1
v -2.7 5.7 -0.5
v -2.6 5.7 1.1
v -2.6 5.7 -0.5
v -2.6 5.8 1.1
v -2.6 5.8 -0.5
v -1.6 6.8 0.4
v -1.6 6.8 0.3
v -1.6 7.2 0.4
v -1.6 7.2 0.3
v -1.5 6.6 0.5
v -1.5 6.6 0.2
v -1.5 6.8 0.5
v -1.5 6.8 0.2
v 1.8 6.8 0.4
v 1.8 6.8 0.3
v 1.8 7.3 0.4
v 1.8 7.3 0.3
v 1.9 6.6 0.5
v 1.9 6.6 0.2
v 1.9 6.8 0.5
v 1.9 6.8 0.2
v 2.3 6.5 1.1
v 2.3 6.5 -0.5
v 2.3 6.6 1.1
v 2.3 6.6 -0.5
v 2.4 6.4 1.1
v 2.4 6.4 -0.5
v 2.4 6.5 1.1
v 2.4 6.5 -0.5
v 2.5 6.3 1.1
v 2.5 6.3 -0.5
v 2.5 6.4 1.1
v 2.5 6.4 -0.5
v 2.6 6.2 1.1
v 2.6 6.2 -0.5
v 2.6 6.3 1.1
v 2.6 6.3 -0.5
v 2.7 6.1 1.1
v 2.7 6.1 -0.5
v 2.7 6.2 1.1
v 2.7 6.2 -0.5
v 2.8 6 1.1
v 2.8 6 -0.5
v 2.8 6.1 1.1
v 2.8 6.1 -0.5
v 2.9 5.9 1.1
v 2.9 5.9 -0.5
v 2.9 6 1.1
v 2.9 6 -0.5
v 3 5.8 1.1
v 3 5.8 -0.5
v 3 5.9 1.1
v 3 5.9 -0.5
v 3.1 0 1.1
v 3.1 0 -0.5
v 3.1 5.8 1.1
v 3.1 5.8 -0.5
v -3.1 0 1.1
v -3.1 5.8 1.1
v -3 5.8 1.1
v -3 5.9 1.1
v -2.9 5.9 1.1
v -2.9 6 1.1
v -2.8 6 1.1
v -2.8 6.1 1.1
v -2.7 0 1.1
v -2.7 5.7 1.1
v -2.7 6.1 1.1
v -2.7 6.2 1.1
v -2.6 5.7 1.1
v -2.6 5.8 1.1
v -2.6 6.2 1.1
v -2.6 6.3 1.1
v -2.5 6.3 1.1
v -2.5 6.4 1.1
v -2.4 6.4 1.1
v -2.4 6.5 1.1
v -2.3 6.5 1.1
v -2.3 6.6 1.1
v -1.3 6 1.1
v -1.3 6.4 1.1
v -1.2 5.9 1.1
v -1.2 6 1.1
v -1.2 6.4 1.1
v -1.2 6.5 1.1
v -1 6.1 1.1
v -1 6.2 1.1
v -0.9 6 1.1
v -0.9 6.1 1.1
v -0.9 6.4 1.1
v -0.9 6.5 1.1
v -0.8 5.9 1.1
v -0.8 6.2 1.1
v -0.6 5.9 1.1
v -0.6 6.2 1.1
v -0.5 5.9 1.1
v -0.5 6.1 1.1
v -0.5 6.2 1.1
v -0.5 6.4 1.1
v -0.4 6.2 1.1
v -0.4 6.4 1.1
v -0.4 6.5 1.1
v -0.3 6.2 1.1
v -0.3 6.4 1.1
v -0.3 6.5 1.1
v -0.2 5.9 1.1
v -0.2 6.1 1.1
v -0.2 6.2 1.1
v -0.2 6.4 1.1
v -0.0999999 5.9 1.1
v -0.0999999 6.2 1.1
v 0.0999999 6.4 1.1
v 0.0999999 6.5 1.1
v 0.3 5.9 1.1
v 0.3 6.4 1.1
v 0.4 5.9 1.1
v 0.4 6.4 1.1
v 0.6 6.4 1.1
v 0.6 6.5 1.1
v 0.8 5.9 1.1
v 0.8 6.5 1.1
v 0.9 6 1.1
v 0.9 6.2 1.1
v 0.9 6.3 1.1
v 0.9 6.4 1.1
v 1.2 5.9 1.1
v 1.2 6 1.1
v 1.2 6.2 1.1
v 1.2 6.3 1.1
v 1.2 6.4 1.1
v 1.2 6.5 1.1
v 2.3 6.5 1.1
v 2.3 6.6 1.1
v 2.4 6.4 1.1
v 2.4 6.5 1.1
v 2.5 6.3 1.1
v 2.5 6.4 1.1
v 2.6 5.7 1.1
v 2.6 5.8 1.1
v 2.6 6.2 1.1
v 2.6 6.3 1.1
v 2.7 0 1.1
v 2.7 5.7 1.1
v 2.7 6.1 1.1
v 2.7 6.2 1.1
v 2.8 6 1.1
v 2.8 6.1 1.1
v 2.9 5.9 1.1
v 2.9 6 1.1
v 3 5.8 1.1
v 3 5.9 1.1
v 3.1 0 1.1
v 3.1 5.8 1.1
v -1.9 6.6 0.5
v -1.9 6.8 0.5
v -1.5 6.6 0.5
v -1.5 6.8 0.5
v 1.5 6.6 0.5
v 1.5 6.8 0.5
v 1.9 6.6 0.5
v 1.9 6.8 0.5
v -1.8 6.8 0.4
v -1.8 7.3 0.4
v -1.6 6.8 0.4
v -1.6 7.2 0.4
v 1.6 6.8 0.4
v 1.6 7.2 0.4
v 1.8 6.8 0.4
v 1.8 7.3 0.4
v -1.8 6.8 0.3
v -1.8 7.3 0.3
v -1.6 6.8 0.3
v -1.6 7.2 0.3
v 1.6 6.8 0.3
v 1.6 7.2 0.3
v 1.8 6.8 0.3
v 1.8 7.3 0.3
v -1.9 6.6 0.2
v -1.9 6.8 0.2
v -1.5 6.6 0.2
v -1.5 6.8 0.2
v 1.5 6.6 0.2
v 1.5 6.8 0.2
v 1.9 6.6 0.2
v 1.9 6.8 0.2
v -3.1 0 -0.5
v -3.1 5.8 -0.5
v -3 5.8 -0.5
v -3 5.9 -0.5
v -2.9 5.9 -0.5
v -2.9 6 -0.5
v -2.8 6 -0.5
v -2.8 6.1 -0.5
v -2.7 0 -0.5
v -2.7 5.7 -0.5
v -2.7 6.1 -0.5
v -2.7 6.2 -0.5
v -2.6 5.7 -0.5
v -2.6 5.8 -0.5
v -2.6 6.2 -0.5
v -2.6 6.3 -0.5
v -2.5 6.3 -0.5
v -2.5 6.4 -0.5
v -2.4 6.4 -0.5
v -2.4 6.5 -0.5
v -2.3 6.5 -0.5
v -2.3 6.6 -0.5
v 2.3 6.5 -0.5
v 2.3 6.6 -0.5
v 2.4 6.4 -0.5
v 2.4 6.5 -0.5
v 2.5 6.3 -0.5
v 2.5 6.4 -0.5
v 2.6 5.7 -0.5
v 2.6 5.8 -0.5
v 2.6 6.2 -0.5
v 2.6 6.3 -0.5
v 2.7 0 -0.5
v 2.7 5.7 -0.5
v 2.7 6.1 -0.5
v 2.7 6.2 -0.5
v 2.8 6 -0.5
v 2.8 6.1 -0.5
v 2.9 5.9 -0.5
v 2.9 6 -0.5
v 3 5.8 -0.5
v 3 5.9 -0.5
v 3.1 0 -0.5
v 3.1 5.8 -0.5
v -3.1 0 1.1
v -2.7 0 1.1
v 2.7 0 1.1
v 3.1 0 1.1
v -3.1 0 -0.5
v -2.7 0 -0.5
v 2.7 0 -0.5
v 3.1 0 -0.5
v -2.7 5.7 1.1
v -2.6 5.7 1.1
v 2.6 5.7 1.1
v 2.7 5.7 1.1
v -2.7 5.7 -0.5
v -2.6 5.7 -0.5
v 2.6 5.7 -0.5
v 2.7 5.7 -0.5
v -2.6 5.8 1.1
v 2.6 5.8 1.1
v -2.6 5.8 -0.5
v 2.6 5.8 -0.5
v -1.6 7.2 0.4
v 1.6 7.2 0.4
v -1.6 7.2 0.3
v 1.6 7.2 0.3
v -3.1 5.8 1.1
v -3 5.8 1.1
v 3 5.8 1.1
v 3.1 5.8 1.1
v -3.1 5.8 -0.5
v -3 5.8 -0.5
v 3 5.8 -0.5
v 3.1 5.8 -0.5
v -3 5.9 1.1
v -2.9 5.9 1.1
v 2.9 5.9 1.1
v 3 5.9 1.1
v -3 5.9 -0.5
v -2.9 5.9 -0.5
v 2.9 5.9 -0.5
v 3 5.9 -0.5
v -2.9 6 1.1
v -2.8 6 1.1
v 2.8 6 1.1
v 2.9 6 1.1
v -2.9 6 -0.5
v -2.8 6 -0.5
v 2.8 6 -0.5
v 2.9 6 -0.5
v -2.8 6.1 1.1
v -2.7 6.1 1.1
v 2.7 6.1 1.1
v 2.8 6.1 1.1
v -2.8 6.1 -0.5
v -2.7 6.1 -0.5
v 2.7 6.1 -0.5
v 2.8 6.1 -0.5
v -2.7 6.2 1.1
v -2.6 6.2 1.1
v 2.6 6.2 1.1
v 2.7 6.2 1.1
v -2.7 6.2 -0.5
v -2.6 6.2 -0.5
v 2.6 6.2 -0.5
v 2.7 6.2 -0.5
v -2.6 6.3 1.1
v -2.5 6.3 1.1
v 2.5 6.3 1.1
v 2.6 6.3 1.1
v -2.6 6.3 -0.5
v -2.5 6.3 -0.5
v 2.5 6.3 -0.5
v 2.6 6.3 -0.5
v -2.5 6.4 1.1
v -2.4 6.4 1.1
v 2.4 6.4 1.1
v 2.5 6.4 1.1
v -2.5 6.4 -0.5
v -2.4 6.4 -0.5
v 2.4 6.4 -0.5
v 2.5 6.4 -0.5
v -2.4 6.5 1.1
v -2.3 6.5 1.1
v 2.3 6.5 1.1
v 2.4 6.5 1.1
v -2.4 6.5 -0.5
v -2.3 6.5 -0.5
v 2.3 6.5 -0.5
v 2.4 6.5 -0.5
v -2.3 6.6 1.1
v 2.3 6.6 1.1
v -1.9 6.6 0.5
v -1.5 6.6 0.5
v 1.5 6.6 0.5
v 1.9 6.6 0.5
v -1.9 6.6 0.2
v -1.5 6.6 0.2
v 1.5 6.6 0.2
v 1.9 6.6 0.2
v -2.3 6.6 -0.5
v 2.3 6.6 -0.5
v -1.9 6.8 0.5
v -1.5 6.8 0.5
v 1.5 6.8 0.5
v 1.9 6.8 0.5
v -1.8 6.8 0.4
v -1.6 6.8 0.4
v 1.6 6.8 0.4
v 1.8 6.8 0.4
v -1.8 6.8 0.3
v -1.6 6.8 0.3
v 1.6 6.8 0.3
v 1.8 6.8 0.3
v -1.9 6.8 0.2
v -1.5 6.8 0.2
v 1.5 6.8 0.2
v 1.9 6.8 0.2
v -1.8 7.3 0.4
v 1.8 7.3 0.4
v -1.8 7.3 0.3
v 1.8 7.3 0.3

# faces
f 3/1/1 2/1/1 1/1/1
f 4/1/1 2/1/1 3/1/1
f 7/1/1 6/1/1 5/1/1
f 8/1/1 6/1/1 7/1/1
f 11/1/1 10/1/1 9/1/1
f 12/1/1 10/1/1 11/1/1
f 15/1/1 14/1/1 13/1/1
f 16/1/1 14/1/1 15/1/1
f 19/1/1 18/1/1 17/1/1
f 20/1/1 18/1/1 19/1/1
f 23/1/1 22/1/1 21/1/1
f 24/1/1 22/1/1 23/1/1
f 27/1/1 26/1/1 25/1/1
f 28/1/1 26/1/1 27/1/1
f 31/1/1 30/1/1 29/1/1
f 32/1/1 30/1/1 31/1/1
f 35/1/1 34/1/1 33/1/1
f 36/1/1 34/1/1 35/1/1
f 39/3/1 38/3/1 37/3/1
f 40/3/1 38/3/1 39/3/1
f 43/2/1 42/2/1 41/2/1
f 44/2/1 42/2/1 43/2/1
f 47/3/1 46/3/1 45/3/1
f 48/3/1 46/3/1 47/3/1
f 51/2/1 50/2/1 49/2/1
f 52/2/1 50/2/1 51/2/1
f 55/1/1 54/1/1 53/1/1
f 56/1/1 54/1/1 55/1/1
f 59/1/1 58/1/1 57/1/1
f 60/1/1 58/1/1 59/1/1
f 61/1/2 62/1/2 63/1/2
f 63/1/2 62/1/2 64/1/2
f 65/1/2 66/1/2 67/1/2
f 67/1/2 66/1/2 68/1/2
f 69/2/2 70/2/2 71/2/2
f 71/2/2 70/2/2 72/2/2
f 73/3/2 74/3/2 75/3/2
f 75/3/2 74/3/2 76/3/2
f 77/2/2 78/2/2 79/2/2
f 79/2/2 78/2/2 80/2/2
f 81/3/2 82/3/2 83/3/2
f 83/3/2 82/3/2 84/3/2
f 85/1/2 86/1/2 87/1/2
f 87/1/2 86/1/2 88/1/2
f 89/1/2 90/1/2 91/1/2
f 91/1/2 90/1/2 92/1/2
f 93/1/2 94/1/2 95/1/2
f 95/1/2 94/1/2 96/1/2
f 97/1/2 98/1/2 99/1/2
f 99/1/2 98/1/2 100/1/2
f 101/1/2 102/1/2 103/1/2
f 103/1/2 102/1/2 104/1/2
f 105/1/2 106/1/2 107/1/2
f 107/1/2 106/1/2 108/1/2
f 109/1/2 110/1/2 111/1/2
f 111/1/2 110/1/2 112/1/2
f 113/1/2 114/1/2 115/1/2
f 115/1/2 114/1/2 116/1/2
f 117/1/2 118/1/2 119/1/2
f 119/1/2 118/1/2 120/1/2
f 123/1/3 122/1/3 121/1/3
f 125/1/3 124/1/3 123/1/3
f 127/1/3 126/1/3 125/1/3
f 129/1/3 123/1/3 121/1/3
f 129/1/3 128/1/3 127/1/3
f 129/1/3 127/1/3 125/1/3
f 129/1/3 125/1/3 123/1/3
f 130/1/3 128/1/3 129/1/3
f 131/1/3 128/1/3 130/1/3
f 133/1/3 132/1/3 131/1/3
f 133/1/3 131/1/3 130/1/3
f 134/1/3 132/1/3 133/1/3
f 135/1/3 132/1/3 134/1/3
f 137/1/3 136/1/3 135/1/3
f 137/1/3 135/1/3 134/1/3
f 139/1/3 138/1/3 137/1/3
f 141/1/3 140/1/3 139/1/3
f 143/1/3 137/1/3 134/1/3
f 143/1/3 142/1/3 141/1/3
f 143/1/3 141/1/3 139/1/3
f 143/1/3 139/1/3 137/1/3
f 144/1/3 142/1/3 143/1/3
f 145/1/3 143/1/3 134/1/3
f 146/6/3 144/6/3 143/6/3
f 146/1/3 143/1/3 145/1/3
f 147/1/3 142/1/3 144/1/3
f 147/6/3 144/6/3 146/6/3
f 148/1/3 142/1/3 147/1/3
f 149/1/3 147/1/3 146/1/3
f 150/1/3 147/1/3 149/1/3
f 151/6/3 146/6/3 145/6/3
f 151/1/3 149/1/3 146/1/3
f 152/6/3 150/6/3 149/6/3
f 152/1/3 149/1/3 151/1/3
f 153/1/3 147/1/3 150/1/3
f 153/6/3 148/6/3 147/6/3
f 154/1/3 142/1/3 148/1/3
f 154/6/3 148/6/3 153/6/3
f 155/1/3 145/1/3 134/1/3
f 155/6/3 152/6/3 151/6/3
f 155/6/3 151/6/3 145/6/3
f 156/6/3 150/6/3 152/6/3
f 156/6/3 152/6/3 155/6/3
f 156/1/3 153/1/3 150/1/3
f 156/1/3 154/1/3 153/1/3
f 157/1/3 155/1/3 134/1/3
f 157/1/3 156/1/3 155/1/3
f 158/1/3 154/1/3 156/1/3
f 158/1/3 156/1/3 157/1/3
f 159/1/3 157/1/3 134/1/3
f 159/6/3 158/6/3 157/6/3
f 160/6/3 158/6/3 159/6/3
f 161/1/3 154/1/3 158/1/3
f 161/6/3 158/6/3 160/6/3
f 162/1/3 154/1/3 161/1/3
f 163/6/3 161/6/3 160/6/3
f 163/6/3 162/6/3 161/6/3
f 164/1/3 154/1/3 162/1/3
f 164/6/3 162/6/3 163/6/3
f 165/1/3 142/1/3 154/1/3
f 165/1/3 154/1/3 164/1/3
f 166/1/3 164/1/3 163/1/3
f 166/6/3 163/6/3 160/6/3
f 167/6/3 165/6/3 164/6/3
f 167/1/3 164/1/3 166/1/3
f 168/1/3 142/1/3 165/1/3
f 168/6/3 165/6/3 167/6/3
f 169/1/3 160/1/3 159/1/3
f 169/1/3 159/1/3 134/1/3
f 170/6/3 167/6/3 166/6/3
f 170/1/3 160/1/3 169/1/3
f 170/6/3 166/6/3 160/6/3
f 171/6/3 167/6/3 170/6/3
f 172/1/3 168/1/3 167/1/3
f 172/6/3 167/6/3 171/6/3
f 173/1/3 169/1/3 134/1/3
f 173/6/3 171/6/3 170/6/3
f 173/6/3 170/6/3 169/6/3
f 174/1/3 172/1/3 171/1/3
f 174/6/3 171/6/3 173/6/3
f 175/1/3 168/1/3 172/1/3
f 175/1/3 172/1/3 174/1/3
f 175/1/3 174/1/3 173/1/3
f 176/1/3 142/1/3 168/1/3
f 176/1/3 168/1/3 175/1/3
f 177/1/3 175/1/3 173/1/3
f 177/1/3 173/1/3 134/1/3
f 178/6/3 176/6/3 175/6/3
f 178/1/3 175/1/3 177/1/3
f 179/1/3 177/1/3 134/1/3
f 179/6/3 178/6/3 177/6/3
f 180/6/3 176/6/3 178/6/3
f 180/6/3 178/6/3 179/6/3
f 181/1/3 180/1/3 179/1/3
f 181/6/3 176/6/3 180/6/3
f 182/1/3 142/1/3 176/1/3
f 182/6/3 176/6/3 181/6/3
f 183/1/3 181/1/3 179/1/3
f 183/1/3 179/1/3 134/1/3
f 183/1/3 182/1/3 181/1/3
f 184/1/3 142/1/3 182/1/3
f 184/1/3 182/1/3 183/1/3
f 185/6/3 184/6/3 183/6/3
f 186/6/3 184/6/3 185/6/3
f 187/6/3 184/6/3 186/6/3
f 188/6/3 184/6/3 187/6/3
f 189/1/3 183/1/3 134/1/3
f 189/6/3 185/6/3 183/6/3
f 190/1/3 186/1/3 185/1/3
f 190/6/3 185/6/3 189/6/3
f 191/6/3 187/6/3 186/6/3
f 191/1/3 186/1/3 190/1/3
f 192/1/3 188/1/3 187/1/3
f 192/6/3 187/6/3 191/6/3
f 193/6/3 184/6/3 188/6/3
f 193/1/3 188/1/3 192/1/3
f 194/1/3 142/1/3 184/1/3
f 194/6/3 184/6/3 193/6/3
f 195/1/3 192/1/3 191/1/3
f 195/1/3 142/1/3 194/1/3
f 195/1/3 194/1/3 193/1/3
f 195/1/3 190/1/3 189/1/3
f 195/1/3 193/1/3 192/1/3
f 195/1/3 191/1/3 190/1/3
f 196/1/3 142/1/3 195/1/3
f 197/1/3 195/1/3 189/1/3
f 198/1/3 195/1/3 197/1/3
f 199/1/3 197/1/3 189/1/3
f 200/1/3 197/1/3 199/1/3
f 202/1/3 189/1/3 134/1/3
f 202/1/3 199/1/3 189/1/3
f 203/1/3 199/1/3 202/1/3
f 204/1/3 199/1/3 203/1/3
f 206/1/3 202/1/3 201/1/3
f 206/1/3 203/1/3 202/1/3
f 207/1/3 203/1/3 206/1/3
f 208/1/3 203/1/3 207/1/3
f 209/1/3 206/1/3 205/1/3
f 209/1/3 207/1/3 206/1/3
f 210/1/3 207/1/3 209/1/3
f 211/1/3 209/1/3 205/1/3
f 212/1/3 209/1/3 211/1/3
f 213/1/3 211/1/3 205/1/3
f 214/1/3 211/1/3 213/1/3
f 215/1/3 213/1/3 205/1/3
f 216/1/3 213/1/3 215/1/3
f 219/3/3 218/3/3 217/3/3
f 220/3/3 218/3/3 219/3/3
f 223/3/3 222/3/3 221/3/3
f 224/3/3 222/3/3 223/3/3
f 227/2/3 226/2/3 225/2/3
f 228/2/3 226/2/3 227/2/3
f 230/2/3 226/2/3 228/2/3
f 231/2/3 230/2/3 229/2/3
f 232/2/3 226/2/3 230/2/3
f 232/2/3 230/2/3 231/2/3
f 233/2/4 234/2/4 235/2/4
f 235/2/4 234/2/4 236/2/4
f 236/2/4 234/2/4 238/2/4
f 237/2/4 238/2/4 239/2/4
f 238/2/4 234/2/4 240/2/4
f 239/2/4 238/2/4 240/2/4
f 241/3/4 242/3/4 243/3/4
f 243/3/4 242/3/4 244/3/4
f 245/3/4 246/3/4 247/3/4
f 247/3/4 246/3/4 248/3/4
f 249/1/4 250/1/4 251/1/4
f 251/1/4 252/1/4 253/1/4
f 253/1/4 254/1/4 255/1/4
f 249/1/4 251/1/4 257/1/4
f 255/1/4 256/1/4 257/1/4
f 253/1/4 255/1/4 257/1/4
f 251/1/4 253/1/4 257/1/4
f 257/1/4 256/1/4 258/1/4
f 258/1/4 256/1/4 259/1/4
f 259/1/4 260/1/4 261/1/4
f 258/1/4 259/1/4 261/1/4
f 261/1/4 260/1/4 262/1/4
f 262/1/4 260/1/4 263/1/4
f 263/1/4 264/1/4 265/1/4
f 262/1/4 263/1/4 265/1/4
f 265/1/4 266/1/4 267/1/4
f 267/1/4 268/1/4 269/1/4
f 267/1/4 269/1/4 271/1/4
f 269/1/4 270/1/4 271/1/4
f 271/1/4 270/1/4 272/1/4
f 265/1/4 267/1/4 273/1/4
f 267/1/4 271/1/4 273/1/4
f 273/1/4 271/1/4 274/1/4
f 262/1/4 265/1/4 275/1/4
f 265/1/4 273/1/4 275/1/4
f 275/1/4 273/1/4 276/1/4
f 262/1/4 275/1/4 278/1/4
f 278/1/4 275/1/4 279/1/4
f 279/1/4 275/1/4 280/1/4
f 277/1/4 278/1/4 282/1/4
f 278/1/4 279/1/4 282/1/4
f 282/1/4 279/1/4 283/1/4
f 283/1/4 279/1/4 284/1/4
f 281/1/4 282/1/4 285/1/4
f 282/1/4 283/1/4 285/1/4
f 285/1/4 283/1/4 286/1/4
f 281/1/4 285/1/4 287/1/4
f 287/1/4 285/1/4 288/1/4
f 281/1/4 287/1/4 289/1/4
f 289/1/4 287/1/4 290/1/4
f 281/1/4 289/1/4 291/1/4
f 291/1/4 289/1/4 292/1/4
f 297/1/5 294/1/5 293/1/5
f 298/1/5 294/1/5 297/1/5
f 299/1/5 296/1/5 295/1/5
f 300/1/5 296/1/5 299/1/5
f 305/1/5 302/1/5 301/1/5
f 306/1/5 302/1/5 305/1/5
f 307/1/5 304/1/5 303/1/5
f 308/1/5 304/1/5 307/1/5
f 311/1/5 310/1/5 309/1/5
f 312/1/5 310/1/5 311/1/5
f 315/2/5 314/2/5 313/2/5
f 316/2/5 314/2/5 315/2/5
f 317/1/6 318/1/6 321/1/6
f 321/1/6 318/1/6 322/1/6
f 319/1/6 320/1/6 323/1/6
f 323/1/6 320/1/6 324/1/6
f 325/1/6 326/1/6 329/1/6
f 329/1/6 326/1/6 330/1/6
f 327/1/6 328/1/6 331/1/6
f 331/1/6 328/1/6 332/1/6
f 333/1/6 334/1/6 337/1/6
f 337/1/6 334/1/6 338/1/6
f 335/1/6 336/1/6 339/1/6
f 339/1/6 336/1/6 340/1/6
f 341/1/6 342/1/6 345/1/6
f 345/1/6 342/1/6 346/1/6
f 343/1/6 344/1/6 347/1/6
f 347/1/6 344/1/6 348/1/6
f 349/1/6 350/1/6 353/1/6
f 353/1/6 350/1/6 354/1/6
f 351/1/6 352/1/6 355/1/6
f 355/1/6 352/1/6 356/1/6
f 357/1/6 358/1/6 361/1/6
f 361/1/6 358/1/6 362/1/6
f 359/1/6 360/1/6 363/1/6
f 363/1/6 360/1/6 364/1/6
f 365/1/6 366/1/6 369/1/6
f 369/1/6 366/1/6 370/1/6
f 367/1/6 368/1/6 371/1/6
f 371/1/6 368/1/6 372/1/6
f 373/1/6 374/1/6 377/1/6
f 377/1/6 374/1/6 378/1/6
f 375/1/6 376/1/6 379/1/6
f 379/1/6 376/1/6 380/1/6
f 381/1/6 382/1/6 383/1/6
f 383/1/6 382/1/6 384/1/6
f 384/1/6 382/1/6 385/1/6
f 385/1/6 382/1/6 386/1/6
f 381/1/6 383/1/6 387/1/6
f 384/1/6 385/1/6 388/1/6
f 388/1/6 385/1/6 389/1/6
f 386/1/6 382/1/6 390/1/6
f 388/1/6 389/1/6 391/1/6
f 389/1/6 390/1/6 391/1/6
f 381/1/6 387/1/6 391/1/6
f 387/1/6 388/1/6 391/1/6
f 390/1/6 382/1/6 392/1/6
f 391/1/6 390/1/6 392/1/6
f 393/3/6 394/3/6 397/3/6
f 397/3/6 394/3/6 398/3/6
f 395/3/6 396/3/6 399/3/6
f 399/3/6 396/3/6 400/3/6
f 393/3/6 397/3/6 401/3/6
f 398/3/6 394/3/6 402/3/6
f 395/3/6 399/3/6 403/3/6
f 400/3/6 396/3/6 404/3/6
f 393/3/6 401/3/6 405/3/6
f 401/3/6 402/3/6 405/3/6
f 402/3/6 394/3/6 406/3/6
f 405/3/6 402/3/6 406/3/6
f 403/3/6 404/3/6 407/3/6
f 395/3/6 403/3/6 407/3/6
f 404/3/6 396/3/6 408/3/6
f 407/3/6 404/3/6 408/3/6
f 409/2/6 410/2/6 411/2/6
f 411/2/6 410/2/6 412/2/6
