# MagicaVoxel @ Ephtracy

# group
o 

# material
mtllib key.mtl
usemtl palette

# normals
vn -1 0 0
vn 1 0 0
vn 0 0 1
vn 0 0 -1
vn 0 -1 0
vn 0 1 0

# texcoords
vt 0.0683594 0.5
vt 0.185547 0.5
vt 0.216797 0.5
vt 0.958984 0.5

# verts
v -0.7 5.9 -4.5
v -0.7 5.9 -5
v -0.7 6 -4.7
v -0.7 6 -4.8
v -0.7 7 -4.7
v -0.7 7 -4.8
v -0.7 7.2 -4.5
v -0.7 7.2 -5
v -0.6 5.8 -4.5
v -0.6 5.8 -5
v -0.6 5.9 -4.5
v -0.6 5.9 -5
v -0.6 6 -4.7
v -0.6 6 -4.8
v -0.6 7 -4.7
v -0.6 7 -4.8
v -0.6 7.2 -4.6
v -0.6 7.2 -4.7
v -0.6 7.2 -4.8
v -0.6 7.2 -4.9
v -0.6 7.3 -4.6
v -0.6 7.3 -4.7
v -0.6 7.3 -4.8
v -0.6 7.3 -4.9
v -0.5 7.3 -4.6
v -0.5 7.3 -4.7
v -0.5 7.3 -4.8
v -0.5 7.3 -4.9
v -0.5 7.4 -4.6
v -0.5 7.4 -4.7
v -0.5 7.4 -4.8
v -0.5 7.4 -4.9
v -0.4 6 -4.9
v -0.4 6 -5
v -0.4 7 -4.9
v -0.4 7 -5
v -0.4 7.4 -4.6
v -0.4 7.4 -4.7
v -0.4 7.4 -4.8
v -0.4 7.4 -4.9
v -0.4 7.6 -4.6
v -0.4 7.6 -4.7
v -0.4 7.6 -4.8
v -0.4 7.6 -4.9
v -0.3 4.3 -4.6
v -0.3 4.3 -4.9
v -0.3 5.8 -4.6
v -0.3 5.8 -4.9
v -0.3 6.1 -4.5
v -0.3 6.1 -4.6
v -0.3 7 -4.5
v -0.3 7 -4.6
v -0.3 7.6 -4.6
v -0.3 7.6 -4.7
v -0.3 7.6 -4.8
v -0.3 7.6 -4.9
v -0.3 7.7 -4.6
v -0.3 7.7 -4.7
v -0.3 7.7 -4.8
v -0.3 7.7 -4.9
v -0.2 4.2 -4.6
v -0.2 4.2 -4.9
v -0.2 4.3 -4.6
v -0.2 4.3 -4.9
v -0.1 6 -4.9
v -0.1 6 -5
v -0.1 7 -4.9
v -0.1 7 -5
v 0 6.1 -4.5
v 0 6.1 -4.6
v 0 7 -4.5
v 0 7 -4.6
v 0.2 6 -4.9
v 0.2 6 -5
v 0.2 7 -4.9
v 0.2 7 -5
v 0.3 6.1 -4.5
v 0.3 6.1 -4.6
v 0.3 7 -4.5
v 0.3 7 -4.6
v -0.5 6 -4.9
v -0.5 6 -5
v -0.5 7 -4.9
v -0.5 7 -5
v -0.4 6.1 -4.5
v -0.4 6.1 -4.6
v -0.4 7 -4.5
v -0.4 7 -4.6
v -0.2 6 -4.9
v -0.2 6 -5
v -0.2 7 -4.9
v -0.2 7 -5
v -0.1 6.1 -4.5
v -0.1 6.1 -4.6
v -0.1 7 -4.5
v -0.1 7 -4.6
v 0.1 5.5 -4.6
v 0.1 5.5 -4.9
v 0.1 5.8 -4.6
v 0.1 5.8 -4.9
v 0.1 6 -4.9
v 0.1 6 -5
v 0.1 7 -4.9
v 0.1 7 -5
v 0.1 7.6 -4.6
v 0.1 7.6 -4.7
v 0.1 7.6 -4.8
v 0.1 7.6 -4.9
v 0.1 7.7 -4.6
v 0.1 7.7 -4.7
v 0.1 7.7 -4.8
v 0.1 7.7 -4.9
v 0.2 4.2 -4.6
v 0.2 4.2 -4.9
v 0.2 4.3 -4.6
v 0.2 4.3 -4.9
v 0.2 5.4 -4.6
v 0.2 5.4 -4.9
v 0.2 5.5 -4.6
v 0.2 5.5 -4.9
v 0.2 6.1 -4.5
v 0.2 6.1 -4.6
v 0.2 7 -4.5
v 0.2 7 -4.6
v 0.2 7.4 -4.6
v 0.2 7.4 -4.7
v 0.2 7.4 -4.8
v 0.2 7.4 -4.9
v 0.2 7.6 -4.6
v 0.2 7.6 -4.7
v 0.2 7.6 -4.8
v 0.2 7.6 -4.9
v 0.3 4.3 -4.6
v 0.3 4.3 -4.9
v 0.3 4.6 -4.6
v 0.3 4.6 -4.9
v 0.3 4.7 -4.6
v 0.3 4.7 -4.9
v 0.3 4.8 -4.6
v 0.3 4.8 -4.9
v 0.3 4.9 -4.6
v 0.3 4.9 -4.9
v 0.3 5 -4.6
v 0.3 5 -4.9
v 0.3 5.1 -4.6
v 0.3 5.1 -4.9
v 0.3 5.4 -4.6
v 0.3 5.4 -4.9
v 0.3 7.3 -4.6
v 0.3 7.3 -4.7
v 0.3 7.3 -4.8
v 0.3 7.3 -4.9
v 0.3 7.4 -4.6
v 0.3 7.4 -4.7
v 0.3 7.4 -4.8
v 0.3 7.4 -4.9
v 0.4 5.8 -4.5
v 0.4 5.8 -5
v 0.4 5.9 -4.5
v 0.4 5.9 -5
v 0.4 6 -4.7
v 0.4 6 -4.8
v 0.4 7 -4.7
v 0.4 7 -4.8
v 0.4 7.2 -4.6
v 0.4 7.2 -4.7
v 0.4 7.2 -4.8
v 0.4 7.2 -4.9
v 0.4 7.3 -4.6
v 0.4 7.3 -4.7
v 0.4 7.3 -4.8
v 0.4 7.3 -4.9
v 0.5 4.8 -4.6
v 0.5 4.8 -4.9
v 0.5 4.9 -4.6
v 0.5 4.9 -4.9
v 0.5 5.9 -4.5
v 0.5 5.9 -5
v 0.5 6 -4.7
v 0.5 6 -4.8
v 0.5 7 -4.7
v 0.5 7 -4.8
v 0.5 7.2 -4.5
v 0.5 7.2 -5
v 0.6 4.6 -4.6
v 0.6 4.6 -4.9
v 0.6 4.7 -4.6
v 0.6 4.7 -4.9
v 0.6 5 -4.6
v 0.6 5 -4.9
v 0.6 5.1 -4.6
v 0.6 5.1 -4.9
v -0.7 5.9 -4.5
v -0.7 7.2 -4.5
v -0.6 5.8 -4.5
v -0.6 5.9 -4.5
v -0.4 6.1 -4.5
v -0.4 7 -4.5
v -0.3 6.1 -4.5
v -0.3 7 -4.5
v -0.1 6.1 -4.5
v -0.1 7 -4.5
v 0 6.1 -4.5
v 0 7 -4.5
v 0.2 6.1 -4.5
v 0.2 7 -4.5
v 0.3 6.1 -4.5
v 0.3 7 -4.5
v 0.4 5.8 -4.5
v 0.4 5.9 -4.5
v 0.5 5.9 -4.5
v 0.5 7.2 -4.5
v -0.6 7.2 -4.6
v -0.6 7.3 -4.6
v -0.5 7.3 -4.6
v -0.5 7.4 -4.6
v -0.4 6.1 -4.6
v -0.4 7 -4.6
v -0.4 7.4 -4.6
v -0.4 7.6 -4.6
v -0.3 4.3 -4.6
v -0.3 5.8 -4.6
v -0.3 6.1 -4.6
v -0.3 7 -4.6
v -0.3 7.6 -4.6
v -0.3 7.7 -4.6
v -0.2 4.2 -4.6
v -0.2 4.3 -4.6
v -0.1 6.1 -4.6
v -0.1 7 -4.6
v 0 6.1 -4.6
v 0 7 -4.6
v 0.1 5.5 -4.6
v 0.1 5.8 -4.6
v 0.1 7.6 -4.6
v 0.1 7.7 -4.6
v 0.2 4.2 -4.6
v 0.2 4.3 -4.6
v 0.2 5.4 -4.6
v 0.2 5.5 -4.6
v 0.2 6.1 -4.6
v 0.2 7 -4.6
v 0.2 7.4 -4.6
v 0.2 7.6 -4.6
v 0.3 4.3 -4.6
v 0.3 4.6 -4.6
v 0.3 4.7 -4.6
v 0.3 4.8 -4.6
v 0.3 4.9 -4.6
v 0.3 5 -4.6
v 0.3 5.1 -4.6
v 0.3 5.4 -4.6
v 0.3 6.1 -4.6
v 0.3 7 -4.6
v 0.3 7.3 -4.6
v 0.3 7.4 -4.6
v 0.4 7.2 -4.6
v 0.4 7.3 -4.6
v 0.5 4.8 -4.6
v 0.5 4.9 -4.6
v 0.6 4.6 -4.6
v 0.6 4.7 -4.6
v 0.6 5 -4.6
v 0.6 5.1 -4.6
v -0.7 6 -4.8
v -0.7 7 -4.8
v -0.6 6 -4.8
v -0.6 7 -4.8
v 0.4 6 -4.8
v 0.4 7 -4.8
v 0.5 6 -4.8
v 0.5 7 -4.8
v -0.7 6 -4.7
v -0.7 7 -4.7
v -0.6 6 -4.7
v -0.6 7 -4.7
v 0.4 6 -4.7
v 0.4 7 -4.7
v 0.5 6 -4.7
v 0.5 7 -4.7
v -0.6 7.2 -4.9
v -0.6 7.3 -4.9
v -0.5 6 -4.9
v -0.5 7 -4.9
v -0.5 7.3 -4.9
v -0.5 7.4 -4.9
v -0.4 6 -4.9
v -0.4 7 -4.9
v -0.4 7.4 -4.9
v -0.4 7.6 -4.9
v -0.3 4.3 -4.9
v -0.3 5.8 -4.9
v -0.3 7.6 -4.9
v -0.3 7.7 -4.9
v -0.2 4.2 -4.9
v -0.2 4.3 -4.9
v -0.2 6 -4.9
v -0.2 7 -4.9
v -0.1 6 -4.9
v -0.1 7 -4.9
v 0.1 5.5 -4.9
v 0.1 5.8 -4.9
v 0.1 6 -4.9
v 0.1 7 -4.9
v 0.1 7.6 -4.9
v 0.1 7.7 -4.9
v 0.2 4.2 -4.9
v 0.2 4.3 -4.9
v 0.2 5.4 -4.9
v 0.2 5.5 -4.9
v 0.2 6 -4.9
v 0.2 7 -4.9
v 0.2 7.4 -4.9
v 0.2 7.6 -4.9
v 0.3 4.3 -4.9
v 0.3 4.6 -4.9
v 0.3 4.7 -4.9
v 0.3 4.8 -4.9
v 0.3 4.9 -4.9
v 0.3 5 -4.9
v 0.3 5.1 -4.9
v 0.3 5.4 -4.9
v 0.3 7.3 -4.9
v 0.3 7.4 -4.9
v 0.4 7.2 -4.9
v 0.4 7.3 -4.9
v 0.5 4.8 -4.9
v 0.5 4.9 -4.9
v 0.6 4.6 -4.9
v 0.6 4.7 -4.9
v 0.6 5 -4.9
v 0.6 5.1 -4.9
v -0.7 5.9 -5
v -0.7 7.2 -5
v -0.6 5.8 -5
v -0.6 5.9 -5
v -0.5 6 -5
v -0.5 7 -5
v -0.4 6 -5
v -0.4 7 -5
v -0.2 6 -5
v -0.2 7 -5
v -0.1 6 -5
v -0.1 7 -5
v 0.1 6 -5
v 0.1 7 -5
v 0.2 6 -5
v 0.2 7 -5
v 0.4 5.8 -5
v 0.4 5.9 -5
v 0.5 5.9 -5
v 0.5 7.2 -5
v -0.2 4.2 -4.6
v 0.2 4.2 -4.6
v -0.2 4.2 -4.9
v 0.2 4.2 -4.9
v -0.3 4.3 -4.6
v -0.2 4.3 -4.6
v 0.2 4.3 -4.6
v 0.3 4.3 -4.6
v -0.3 4.3 -4.9
v -0.2 4.3 -4.9
v 0.2 4.3 -4.9
v 0.3 4.3 -4.9
v 0.3 4.6 -4.6
v 0.6 4.6 -4.6
v 0.3 4.6 -4.9
v 0.6 4.6 -4.9
v 0.3 4.8 -4.6
v 0.5 4.8 -4.6
v 0.3 4.8 -4.9
v 0.5 4.8 -4.9
v 0.3 5 -4.6
v 0.6 5 -4.6
v 0.3 5 -4.9
v 0.6 5 -4.9
v -0.6 5.8 -4.5
v 0.4 5.8 -4.5
v -0.3 5.8 -4.6
v 0.1 5.8 -4.6
v -0.3 5.8 -4.9
v 0.1 5.8 -4.9
v -0.6 5.8 -5
v 0.4 5.8 -5
v -0.7 5.9 -4.5
v -0.6 5.9 -4.5
v 0.4 5.9 -4.5
v 0.5 5.9 -4.5
v -0.7 5.9 -5
v -0.6 5.9 -5
v 0.4 5.9 -5
v 0.5 5.9 -5
v -0.4 7 -4.5
v -0.3 7 -4.5
v -0.1 7 -4.5
v 0 7 -4.5
v 0.2 7 -4.5
v 0.3 7 -4.5
v -0.4 7 -4.6
v -0.3 7 -4.6
v -0.1 7 -4.6
v 0 7 -4.6
v 0.2 7 -4.6
v 0.3 7 -4.6
v -0.7 7 -4.7
v -0.6 7 -4.7
v 0.4 7 -4.7
v 0.5 7 -4.7
v -0.7 7 -4.8
v -0.6 7 -4.8
v 0.4 7 -4.8
v 0.5 7 -4.8
v -0.5 7 -4.9
v -0.4 7 -4.9
v -0.2 7 -4.9
v -0.1 7 -4.9
v 0.1 7 -4.9
v 0.2 7 -4.9
v -0.5 7 -5
v -0.4 7 -5
v -0.2 7 -5
v -0.1 7 -5
v 0.1 7 -5
v 0.2 7 -5
v 0.3 4.7 -4.6
v 0.6 4.7 -4.6
v 0.3 4.7 -4.9
v 0.6 4.7 -4.9
v 0.3 4.9 -4.6
v 0.5 4.9 -4.6
v 0.3 4.9 -4.9
v 0.5 4.9 -4.9
v 0.3 5.1 -4.6
v 0.6 5.1 -4.6
v 0.3 5.1 -4.9
v 0.6 5.1 -4.9
v 0.2 5.4 -4.6
v 0.3 5.4 -4.6
v 0.2 5.4 -4.9
v 0.3 5.4 -4.9
v 0.1 5.5 -4.6
v 0.2 5.5 -4.6
v 0.1 5.5 -4.9
v 0.2 5.5 -4.9
v -0.7 6 -4.7
v -0.6 6 -4.7
v 0.4 6 -4.7
v 0.5 6 -4.7
v -0.7 6 -4.8
v -0.6 6 -4.8
v 0.4 6 -4.8
v 0.5 6 -4.8
v -0.5 6 -4.9
v -0.4 6 -4.9
v -0.2 6 -4.9
v -0.1 6 -4.9
v 0.1 6 -4.9
v 0.2 6 -4.9
v -0.5 6 -5
v -0.4 6 -5
v -0.2 6 -5
v -0.1 6 -5
v 0.1 6 -5
v 0.2 6 -5
v -0.4 6.1 -4.5
v -0.3 6.1 -4.5
v -0.1 6.1 -4.5
v 0 6.1 -4.5
v 0.2 6.1 -4.5
v 0.3 6.1 -4.5
v -0.4 6.1 -4.6
v -0.3 6.1 -4.6
v -0.1 6.1 -4.6
v 0 6.1 -4.6
v 0.2 6.1 -4.6
v 0.3 6.1 -4.6
v -0.7 7.2 -4.5
v 0.5 7.2 -4.5
v -0.6 7.2 -4.6
v 0.4 7.2 -4.6
v -0.6 7.2 -4.7
v 0.4 7.2 -4.7
v -0.6 7.2 -4.8
v 0.4 7.2 -4.8
v -0.6 7.2 -4.9
v 0.4 7.2 -4.9
v -0.7 7.2 -5
v 0.5 7.2 -5
v -0.6 7.3 -4.6
v -0.5 7.3 -4.6
v 0.3 7.3 -4.6
v 0.4 7.3 -4.6
v -0.6 7.3 -4.7
v -0.5 7.3 -4.7
v 0.3 7.3 -4.7
v 0.4 7.3 -4.7
v -0.6 7.3 -4.8
v -0.5 7.3 -4.8
v 0.3 7.3 -4.8
v 0.4 7.3 -4.8
v -0.6 7.3 -4.9
v -0.5 7.3 -4.9
v 0.3 7.3 -4.9
v 0.4 7.3 -4.9
v -0.5 7.4 -4.6
v -0.4 7.4 -4.6
v 0.2 7.4 -4.6
v 0.3 7.4 -4.6
v -0.5 7.4 -4.7
v -0.4 7.4 -4.7
v 0.2 7.4 -4.7
v 0.3 7.4 -4.7
v -0.5 7.4 -4.8
v -0.4 7.4 -4.8
v 0.2 7.4 -4.8
v 0.3 7.4 -4.8
v -0.5 7.4 -4.9
v -0.4 7.4 -4.9
v 0.2 7.4 -4.9
v 0.3 7.4 -4.9
v -0.4 7.6 -4.6
v -0.3 7.6 -4.6
v 0.1 7.6 -4.6
v 0.2 7.6 -4.6
v -0.4 7.6 -4.7
v -0.3 7.6 -4.7
v 0.1 7.6 -4.7
v 0.2 7.6 -4.7
v -0.4 7.6 -4.8
v -0.3 7.6 -4.8
v 0.1 7.6 -4.8
v 0.2 7.6 -4.8
v -0.4 7.6 -4.9
v -0.3 7.6 -4.9
v 0.1 7.6 -4.9
v 0.2 7.6 -4.9
v -0.3 7.7 -4.6
v 0.1 7.7 -4.6
v -0.3 7.7 -4.7
v 0.1 7.7 -4.7
v -0.3 7.7 -4.8
v 0.1 7.7 -4.8
v -0.3 7.7 -4.9
v 0.1 7.7 -4.9

# faces
f 3/2/1 2/2/1 1/2/1
f 4/2/1 2/2/1 3/2/1
f 5/2/1 3/2/1 1/2/1
f 6/2/1 2/2/1 4/2/1
f 7/2/1 5/2/1 1/2/1
f 7/2/1 6/2/1 5/2/1
f 8/2/1 2/2/1 6/2/1
f 8/2/1 6/2/1 7/2/1
f 11/2/1 10/2/1 9/2/1
f 12/2/1 10/2/1 11/2/1
f 15/3/1 14/3/1 13/3/1
f 16/3/1 14/3/1 15/3/1
f 21/3/1 18/3/1 17/3/1
f 22/4/1 19/4/1 18/4/1
f 22/3/1 18/3/1 21/3/1
f 23/3/1 20/3/1 19/3/1
f 23/4/1 19/4/1 22/4/1
f 24/3/1 20/3/1 23/3/1
f 29/3/1 26/3/1 25/3/1
f 30/4/1 27/4/1 26/4/1
f 30/3/1 26/3/1 29/3/1
f 31/3/1 28/3/1 27/3/1
f 31/4/1 27/4/1 30/4/1
f 32/3/1 28/3/1 31/3/1
f 35/2/1 34/2/1 33/2/1
f 36/2/1 34/2/1 35/2/1
f 41/3/1 38/3/1 37/3/1
f 42/4/1 39/4/1 38/4/1
f 42/3/1 38/3/1 41/3/1
f 43/3/1 40/3/1 39/3/1
f 43/4/1 39/4/1 42/4/1
f 44/3/1 40/3/1 43/3/1
f 47/2/1 46/2/1 45/2/1
f 48/2/1 46/2/1 47/2/1
f 51/2/1 50/2/1 49/2/1
f 52/2/1 50/2/1 51/2/1
f 57/3/1 54/3/1 53/3/1
f 58/4/1 55/4/1 54/4/1
f 58/3/1 54/3/1 57/3/1
f 59/3/1 56/3/1 55/3/1
f 59/4/1 55/4/1 58/4/1
f 60/3/1 56/3/1 59/3/1
f 63/2/1 62/2/1 61/2/1
f 64/2/1 62/2/1 63/2/1
f 67/2/1 66/2/1 65/2/1
f 68/2/1 66/2/1 67/2/1
f 71/2/1 70/2/1 69/2/1
f 72/2/1 70/2/1 71/2/1
f 75/2/1 74/2/1 73/2/1
f 76/2/1 74/2/1 75/2/1
f 79/2/1 78/2/1 77/2/1
f 80/2/1 78/2/1 79/2/1
f 81/2/2 82/2/2 83/2/2
f 83/2/2 82/2/2 84/2/2
f 85/2/2 86/2/2 87/2/2
f 87/2/2 86/2/2 88/2/2
f 89/2/2 90/2/2 91/2/2
f 91/2/2 90/2/2 92/2/2
f 93/2/2 94/2/2 95/2/2
f 95/2/2 94/2/2 96/2/2
f 97/2/2 98/2/2 99/2/2
f 99/2/2 98/2/2 100/2/2
f 101/2/2 102/2/2 103/2/2
f 103/2/2 102/2/2 104/2/2
f 105/3/2 106/3/2 109/3/2
f 106/4/2 107/4/2 110/4/2
f 109/3/2 106/3/2 110/3/2
f 107/3/2 108/3/2 111/3/2
f 110/4/2 107/4/2 111/4/2
f 111/3/2 108/3/2 112/3/2
f 113/2/2 114/2/2 115/2/2
f 115/2/2 114/2/2 116/2/2
f 117/2/2 118/2/2 119/2/2
f 119/2/2 118/2/2 120/2/2
f 121/2/2 122/2/2 123/2/2
f 123/2/2 122/2/2 124/2/2
f 125/3/2 126/3/2 129/3/2
f 126/4/2 127/4/2 130/4/2
f 129/3/2 126/3/2 130/3/2
f 127/3/2 128/3/2 131/3/2
f 130/4/2 127/4/2 131/4/2
f 131/3/2 128/3/2 132/3/2
f 133/2/2 134/2/2 135/2/2
f 135/2/2 134/2/2 136/2/2
f 137/2/2 138/2/2 139/2/2
f 139/2/2 138/2/2 140/2/2
f 141/2/2 142/2/2 143/2/2
f 143/2/2 142/2/2 144/2/2
f 145/2/2 146/2/2 147/2/2
f 147/2/2 146/2/2 148/2/2
f 149/3/2 150/3/2 153/3/2
f 150/4/2 151/4/2 154/4/2
f 153/3/2 150/3/2 154/3/2
f 151/3/2 152/3/2 155/3/2
f 154/4/2 151/4/2 155/4/2
f 155/3/2 152/3/2 156/3/2
f 157/2/2 158/2/2 159/2/2
f 159/2/2 158/2/2 160/2/2
f 161/3/2 162/3/2 163/3/2
f 163/3/2 162/3/2 164/3/2
f 165/3/2 166/3/2 169/3/2
f 166/4/2 167/4/2 170/4/2
f 169/3/2 166/3/2 170/3/2
f 167/3/2 168/3/2 171/3/2
f 170/4/2 167/4/2 171/4/2
f 171/3/2 168/3/2 172/3/2
f 173/2/2 174/2/2 175/2/2
f 175/2/2 174/2/2 176/2/2
f 177/2/2 178/2/2 179/2/2
f 179/2/2 178/2/2 180/2/2
f 177/2/2 179/2/2 181/2/2
f 180/2/2 178/2/2 182/2/2
f 177/2/2 181/2/2 183/2/2
f 181/2/2 182/2/2 183/2/2
f 182/2/2 178/2/2 184/2/2
f 183/2/2 182/2/2 184/2/2
f 185/2/2 186/2/2 187/2/2
f 187/2/2 186/2/2 188/2/2
f 189/2/2 190/2/2 191/2/2
f 191/2/2 190/2/2 192/2/2
f 196/2/3 194/2/3 193/2/3
f 197/2/3 194/2/3 196/2/3
f 197/2/3 196/2/3 195/2/3
f 198/2/3 194/2/3 197/2/3
f 199/2/3 197/2/3 195/2/3
f 200/2/3 194/2/3 198/2/3
f 201/2/3 199/2/3 195/2/3
f 201/2/3 200/2/3 199/2/3
f 202/2/3 194/2/3 200/2/3
f 202/2/3 200/2/3 201/2/3
f 203/2/3 201/2/3 195/2/3
f 204/2/3 194/2/3 202/2/3
f 205/2/3 203/2/3 195/2/3
f 205/2/3 204/2/3 203/2/3
f 206/2/3 194/2/3 204/2/3
f 206/2/3 204/2/3 205/2/3
f 207/2/3 205/2/3 195/2/3
f 208/2/3 194/2/3 206/2/3
f 209/2/3 207/2/3 195/2/3
f 209/2/3 208/2/3 207/2/3
f 210/2/3 208/2/3 209/2/3
f 211/2/3 208/2/3 210/2/3
f 212/2/3 194/2/3 208/2/3
f 212/2/3 208/2/3 211/2/3
f 215/3/3 214/3/3 213/3/3
f 219/3/3 216/3/3 215/3/3
f 223/3/3 218/3/3 217/3/3
f 224/3/3 218/3/3 223/3/3
f 225/3/3 220/3/3 219/3/3
f 228/2/3 222/2/3 221/2/3
f 231/3/3 230/3/3 229/3/3
f 232/3/3 230/3/3 231/3/3
f 233/2/3 222/2/3 228/2/3
f 233/2/3 228/2/3 227/2/3
f 234/2/3 222/2/3 233/2/3
f 235/3/3 225/3/3 219/3/3
f 235/3/3 226/3/3 225/3/3
f 236/3/3 226/3/3 235/3/3
f 237/2/3 233/2/3 227/2/3
f 238/2/3 233/2/3 237/2/3
f 239/2/3 233/2/3 238/2/3
f 240/2/3 233/2/3 239/2/3
f 243/3/3 219/3/3 215/3/3
f 243/3/3 235/3/3 219/3/3
f 244/3/3 235/3/3 243/3/3
f 245/2/3 239/2/3 238/2/3
f 246/2/3 239/2/3 245/2/3
f 247/2/3 239/2/3 246/2/3
f 248/2/3 239/2/3 247/2/3
f 249/2/3 239/2/3 248/2/3
f 250/2/3 239/2/3 249/2/3
f 251/2/3 239/2/3 250/2/3
f 252/2/3 239/2/3 251/2/3
f 253/3/3 242/3/3 241/3/3
f 254/3/3 242/3/3 253/3/3
f 255/3/3 215/3/3 213/3/3
f 255/3/3 243/3/3 215/3/3
f 256/3/3 243/3/3 255/3/3
f 257/3/3 255/3/3 213/3/3
f 258/3/3 255/3/3 257/3/3
f 259/2/3 249/2/3 248/2/3
f 260/2/3 249/2/3 259/2/3
f 261/2/3 247/2/3 246/2/3
f 262/2/3 247/2/3 261/2/3
f 263/2/3 251/2/3 250/2/3
f 264/2/3 251/2/3 263/2/3
f 267/2/3 266/2/3 265/2/3
f 268/2/3 266/2/3 267/2/3
f 271/2/3 270/2/3 269/2/3
f 272/2/3 270/2/3 271/2/3
f 273/2/4 274/2/4 275/2/4
f 275/2/4 274/2/4 276/2/4
f 277/2/4 278/2/4 279/2/4
f 279/2/4 278/2/4 280/2/4
f 281/3/4 282/3/4 285/3/4
f 283/3/4 284/3/4 287/3/4
f 287/3/4 284/3/4 288/3/4
f 285/3/4 286/3/4 289/3/4
f 289/3/4 290/3/4 293/3/4
f 291/2/4 292/2/4 296/2/4
f 297/3/4 298/3/4 299/3/4
f 299/3/4 298/3/4 300/3/4
f 296/2/4 292/2/4 301/2/4
f 295/2/4 296/2/4 301/2/4
f 301/2/4 292/2/4 302/2/4
f 293/3/4 294/3/4 305/3/4
f 289/3/4 293/3/4 305/3/4
f 305/3/4 294/3/4 306/3/4
f 295/2/4 301/2/4 307/2/4
f 307/2/4 301/2/4 308/2/4
f 308/2/4 301/2/4 309/2/4
f 309/2/4 301/2/4 310/2/4
f 303/3/4 304/3/4 311/3/4
f 311/3/4 304/3/4 312/3/4
f 285/3/4 289/3/4 313/3/4
f 289/3/4 305/3/4 313/3/4
f 313/3/4 305/3/4 314/3/4
f 308/2/4 309/2/4 315/2/4
f 315/2/4 309/2/4 316/2/4
f 316/2/4 309/2/4 317/2/4
f 317/2/4 309/2/4 318/2/4
f 318/2/4 309/2/4 319/2/4
f 319/2/4 309/2/4 320/2/4
f 320/2/4 309/2/4 321/2/4
f 321/2/4 309/2/4 322/2/4
f 281/3/4 285/3/4 323/3/4
f 285/3/4 313/3/4 323/3/4
f 323/3/4 313/3/4 324/3/4
f 281/3/4 323/3/4 325/3/4
f 325/3/4 323/3/4 326/3/4
f 318/2/4 319/2/4 327/2/4
f 327/2/4 319/2/4 328/2/4
f 316/2/4 317/2/4 329/2/4
f 329/2/4 317/2/4 330/2/4
f 320/2/4 321/2/4 331/2/4
f 331/2/4 321/2/4 332/2/4
f 333/2/4 334/2/4 336/2/4
f 336/2/4 334/2/4 337/2/4
f 335/2/4 336/2/4 337/2/4
f 337/2/4 334/2/4 338/2/4
f 335/2/4 337/2/4 339/2/4
f 338/2/4 334/2/4 340/2/4
f 335/2/4 339/2/4 341/2/4
f 339/2/4 340/2/4 341/2/4
f 340/2/4 334/2/4 342/2/4
f 341/2/4 340/2/4 342/2/4
f 335/2/4 341/2/4 343/2/4
f 342/2/4 334/2/4 344/2/4
f 335/2/4 343/2/4 345/2/4
f 343/2/4 344/2/4 345/2/4
f 344/2/4 334/2/4 346/2/4
f 345/2/4 344/2/4 346/2/4
f 335/2/4 345/2/4 347/2/4
f 346/2/4 334/2/4 348/2/4
f 335/2/4 347/2/4 349/2/4
f 347/2/4 348/2/4 349/2/4
f 349/2/4 348/2/4 350/2/4
f 350/2/4 348/2/4 351/2/4
f 348/2/4 334/2/4 352/2/4
f 351/2/4 348/2/4 352/2/4
f 355/2/5 354/2/5 353/2/5
f 356/2/5 354/2/5 355/2/5
f 361/2/5 358/2/5 357/2/5
f 362/2/5 358/2/5 361/2/5
f 363/2/5 360/2/5 359/2/5
f 364/2/5 360/2/5 363/2/5
f 367/2/5 366/2/5 365/2/5
f 368/2/5 366/2/5 367/2/5
f 371/2/5 370/2/5 369/2/5
f 372/2/5 370/2/5 371/2/5
f 375/2/5 374/2/5 373/2/5
f 376/2/5 374/2/5 375/2/5
f 379/2/5 378/2/5 377/2/5
f 380/2/5 378/2/5 379/2/5
f 381/2/5 379/2/5 377/2/5
f 382/2/5 378/2/5 380/2/5
f 383/2/5 381/2/5 377/2/5
f 383/2/5 382/2/5 381/2/5
f 384/2/5 378/2/5 382/2/5
f 384/2/5 382/2/5 383/2/5
f 389/2/5 386/2/5 385/2/5
f 390/2/5 386/2/5 389/2/5
f 391/2/5 388/2/5 387/2/5
f 392/2/5 388/2/5 391/2/5
f 399/2/5 394/2/5 393/2/5
f 400/2/5 394/2/5 399/2/5
f 401/2/5 396/2/5 395/2/5
f 402/2/5 396/2/5 401/2/5
f 403/2/5 398/2/5 397/2/5
f 404/2/5 398/2/5 403/2/5
f 409/2/5 406/2/5 405/2/5
f 410/2/5 406/2/5 409/2/5
f 411/2/5 408/2/5 407/2/5
f 412/2/5 408/2/5 411/2/5
f 419/2/5 414/2/5 413/2/5
f 420/2/5 414/2/5 419/2/5
f 421/2/5 416/2/5 415/2/5
f 422/2/5 416/2/5 421/2/5
f 423/2/5 418/2/5 417/2/5
f 424/2/5 418/2/5 423/2/5
f 425/2/6 426/2/6 427/2/6
f 427/2/6 426/2/6 428/2/6
f 429/2/6 430/2/6 431/2/6
f 431/2/6 430/2/6 432/2/6
f 433/2/6 434/2/6 435/2/6
f 435/2/6 434/2/6 436/2/6
f 437/2/6 438/2/6 439/2/6
f 439/2/6 438/2/6 440/2/6
f 441/2/6 442/2/6 443/2/6
f 443/2/6 442/2/6 444/2/6
f 445/2/6 446/2/6 449/2/6
f 449/2/6 446/2/6 450/2/6
f 447/2/6 448/2/6 451/2/6
f 451/2/6 448/2/6 452/2/6
f 453/2/6 454/2/6 459/2/6
f 459/2/6 454/2/6 460/2/6
f 455/2/6 456/2/6 461/2/6
f 461/2/6 456/2/6 462/2/6
f 457/2/6 458/2/6 463/2/6
f 463/2/6 458/2/6 464/2/6
f 465/2/6 466/2/6 471/2/6
f 471/2/6 466/2/6 472/2/6
f 467/2/6 468/2/6 473/2/6
f 473/2/6 468/2/6 474/2/6
f 469/2/6 470/2/6 475/2/6
f 475/2/6 470/2/6 476/2/6
f 477/2/6 478/2/6 479/2/6
f 479/2/6 478/2/6 480/2/6
f 477/2/6 479/2/6 481/2/6
f 480/2/6 478/2/6 482/2/6
f 477/2/6 481/2/6 483/2/6
f 482/2/6 478/2/6 484/2/6
f 477/2/6 483/2/6 485/2/6
f 484/2/6 478/2/6 486/2/6
f 477/2/6 485/2/6 487/2/6
f 485/2/6 486/2/6 487/2/6
f 486/2/6 478/2/6 488/2/6
f 487/2/6 486/2/6 488/2/6
f 489/3/6 490/3/6 493/3/6
f 493/3/6 490/3/6 494/3/6
f 491/3/6 492/3/6 495/3/6
f 495/3/6 492/3/6 496/3/6
f 493/4/6 494/4/6 497/4/6
f 497/4/6 494/4/6 498/4/6
f 495/4/6 496/4/6 499/4/6
f 499/4/6 496/4/6 500/4/6
f 497/3/6 498/3/6 501/3/6
f 501/3/6 498/3/6 502/3/6
f 499/3/6 500/3/6 503/3/6
f 503/3/6 500/3/6 504/3/6
f 505/3/6 506/3/6 509/3/6
f 509/3/6 506/3/6 510/3/6
f 507/3/6 508/3/6 511/3/6
f 511/3/6 508/3/6 512/3/6
f 509/4/6 510/4/6 513/4/6
f 513/4/6 510/4/6 514/4/6
f 511/4/6 512/4/6 515/4/6
f 515/4/6 512/4/6 516/4/6
f 513/3/6 514/3/6 517/3/6
f 517/3/6 514/3/6 518/3/6
f 515/3/6 516/3/6 519/3/6
f 519/3/6 516/3/6 520/3/6
f 521/3/6 522/3/6 525/3/6
f 525/3/6 522/3/6 526/3/6
f 523/3/6 524/3/6 527/3/6
f 527/3/6 524/3/6 528/3/6
f 525/4/6 526/4/6 529/4/6
f 529/4/6 526/4/6 530/4/6
f 527/4/6 528/4/6 531/4/6
f 531/4/6 528/4/6 532/4/6
f 529/3/6 530/3/6 533/3/6
f 533/3/6 530/3/6 534/3/6
f 531/3/6 532/3/6 535/3/6
f 535/3/6 532/3/6 536/3/6
f 537/3/6 538/3/6 539/3/6
f 539/3/6 538/3/6 540/3/6
f 539/4/6 540/4/6 541/4/6
f 541/4/6 540/4/6 542/4/6
f 541/3/6 542/3/6 543/3/6
f 543/3/6 542/3/6 544/3/6
